<svg id="wishList" xmlns="http://www.w3.org/2000/svg" width="408.74" height="476.03" viewBox="0 0 408.74 476.03">
  <path id="Path_1" data-name="Path 1" d="M198.748,42h302.62A53.106,53.106,0,0,1,554.4,95.031v413.84a9.132,9.132,0,0,1-13.941,7.785l-146.55-90.383-146.55,90.383a9.217,9.217,0,0,1-9.3.168,9.121,9.121,0,0,1-4.7-8.008l0-360.75H154.788a9.132,9.132,0,0,1-9.129-9.129V95.089A53.2,53.2,0,0,1,198.745,42Zm53.031,53.031v397.38l137.37-84.672a9.3,9.3,0,0,1,9.633,0l137.31,84.73V94.979A34.748,34.748,0,0,0,501.373,60.26H238.733A52.875,52.875,0,0,1,251.78,95.033Zm-87.75,34.723H233.47V95.09a34.719,34.719,0,0,0-69.438,0Z" transform="translate(-145.659 -42)"/>
  <path id="Path_2" data-name="Path 2" d="M349.1,275.35l17.977,55.273a9.2,9.2,0,0,1-3.3,10.246,9.078,9.078,0,0,1-10.754,0l-46.984-34.16-46.984,34.16a9.2,9.2,0,0,1-10.75,0,9.173,9.173,0,0,1-3.3-10.246l17.977-55.273-46.984-34.16a9.172,9.172,0,0,1,5.375-16.574h57.906l17.977-55.273a9.2,9.2,0,0,1,8.68-6.328,9.09,9.09,0,0,1,8.68,6.328l17.977,55.273h58.129a9.09,9.09,0,0,1,8.68,6.328,9.2,9.2,0,0,1-3.3,10.246Zm-23.129-32.422a9.09,9.09,0,0,1-8.68-6.328l-11.312-34.777L294.672,236.6a9.2,9.2,0,0,1-8.68,6.328H249.426l29.566,21.5a9.173,9.173,0,0,1,3.3,10.246l-11.312,34.777,29.566-21.5a9.078,9.078,0,0,1,10.754,0l29.566,21.5-11.312-34.777a9.2,9.2,0,0,1,3.3-10.246l29.566-21.5Z" transform="translate(-57.685 -42)"/>
</svg>
