<svg xmlns="http://www.w3.org/2000/svg" width="511.923" height="536.711" viewBox="0 0 511.923 536.711">
  <g id="wishList_OK" transform="translate(-94.009 -14.766)">
    <path id="Path_3" data-name="Path 3" d="M101.97,14.766a6.641,6.641,0,0,0-1.332.133l-.461.086A7,7,0,0,0,94.5,21.852l-.492,503.28a32.226,32.226,0,0,0,5.578,18.57,16.635,16.635,0,0,0,7.68,6.344,13.4,13.4,0,0,0,11.461-1.269l230.59-147.96,230.6,148.53-.645-.469a12.816,12.816,0,0,0,12.273,1.762,18.229,18.229,0,0,0,7.809-6.8,34.544,34.544,0,0,0,6.313-19.6l.176-500.66,0,.012a7.013,7.013,0,0,0-2.023-6.16c-.012-.012-.023-.02-.035-.031a.253.253,0,0,0-.031-.035.224.224,0,0,1-.043-.043,7.008,7.008,0,0,0-6.008-1.871l-495.72-.668ZM108.5,28.778l483.33.645-.176,494.81a24.274,24.274,0,0,1-3.762,11.551,4.591,4.591,0,0,1-1.2,1.281L353.111,386.6a7,7,0,0,0-7.57-.008L111.87,536.537a2.723,2.723,0,0,1-.832-.9,21.118,21.118,0,0,1-3.031-10.5l.492-496.37ZM503.731,82.34a6.994,6.994,0,0,0-5.437,2.3L348.054,245.5l-72.672-60.9,0,0a7,7,0,1,0-8.992,10.73l77.746,65.168a7,7,0,0,0,9.613-.59L508.533,94.2v0a7,7,0,0,0-4.8-11.855Zm-276.33.3v0a7,7,0,0,0-7,7v245.86a7,7,0,0,0,7,7h245.86a7,7,0,0,0,7-7V151.673a7,7,0,1,0-14,0v176.81H234.4V96.623h231.89l0,0A7,7,0,0,0,480.26,95.9V89.627a7,7,0,0,0-7-7H227.4Z"/>
  </g>
</svg>
